<svg width="330" height="330" viewBox="0 0 330 330" fill="none" xmlns="http://www.w3.org/2000/svg">
<circle cx="165" cy="165" r="165" fill="#1E1E1E"/>
<path d="M71.5837 174.833H191.255L157.33 208.66C156.869 209.117 156.504 209.661 156.254 210.26C156.005 210.859 155.876 211.502 155.876 212.151C155.876 212.8 156.005 213.443 156.254 214.042C156.504 214.641 156.869 215.185 157.33 215.642L164.312 222.525C164.769 222.986 165.313 223.352 165.912 223.601C166.511 223.851 167.154 223.979 167.803 223.979C168.452 223.979 169.095 223.851 169.694 223.601C170.293 223.352 170.837 222.986 171.294 222.525L221.837 172.08C223.22 170.698 223.999 168.824 224 166.868V163.132C223.978 161.181 223.203 159.314 221.837 157.92L171.294 107.475C170.837 107.014 170.293 106.648 169.694 106.399C169.095 106.149 168.452 106.021 167.803 106.021C167.154 106.021 166.511 106.149 165.912 106.399C165.313 106.648 164.769 107.014 164.312 107.475L157.33 114.457C156.872 114.905 156.509 115.441 156.26 116.032C156.012 116.623 155.884 117.257 155.884 117.898C155.884 118.539 156.012 119.174 156.26 119.765C156.509 120.356 156.872 120.891 157.33 121.34L191.255 155.167H71.5837C70.938 155.167 70.2986 155.294 69.7021 155.541C69.1056 155.788 68.5636 156.15 68.107 156.607C67.6505 157.063 67.2883 157.605 67.0413 158.202C66.7942 158.798 66.667 159.438 66.667 160.083V169.917C66.667 170.562 66.7942 171.202 67.0413 171.798C67.2883 172.395 67.6505 172.937 68.107 173.393C68.5636 173.85 69.1056 174.212 69.7021 174.459C70.2986 174.706 70.938 174.833 71.5837 174.833ZM263.334 219.083V110.917C263.334 110.271 263.207 109.632 262.959 109.035C262.712 108.439 262.35 107.897 261.894 107.44C261.437 106.984 260.895 106.621 260.299 106.374C259.702 106.127 259.063 106 258.417 106H248.584C247.938 106 247.299 106.127 246.702 106.374C246.106 106.621 245.564 106.984 245.107 107.44C244.651 107.897 244.288 108.439 244.041 109.035C243.794 109.632 243.667 110.271 243.667 110.917V219.083C243.667 219.729 243.794 220.368 244.041 220.965C244.288 221.561 244.651 222.103 245.107 222.56C245.564 223.016 246.106 223.379 246.702 223.626C247.299 223.873 247.938 224 248.584 224H258.417C259.063 224 259.702 223.873 260.299 223.626C260.895 223.379 261.437 223.016 261.894 222.56C262.35 222.103 262.712 221.561 262.959 220.965C263.207 220.368 263.334 219.729 263.334 219.083Z" fill="#77FF00"/>
</svg>
